<svg width="354" height="341" viewBox="0 0 354 341" fill="none" xmlns="http://www.w3.org/2000/svg">
<path d="M135.902 334.864L344.478 236.284C352.779 232.133 353.817 225.529 350.704 218.643C336.982 188.292 326.188 170.919 308.159 137.703L151.467 204.115L118.261 338.65C122.226 340.039 127.732 338.994 135.902 334.864Z" fill="white" stroke="black" stroke-width="3"/>
<path d="M55.9999 59.8764L7.22846 115.912C-0.148571 124.267 0.507175 130.579 4.11539 137.703L112.035 332.789C113.645 335.703 115.608 337.721 118.261 338.65L151.467 204.115L55.9999 59.8764Z" fill="white" stroke="black" stroke-width="3"/>
<path d="M149.841 206.815L119.61 335.347C113.813 337.975 111.515 338.815 110.096 330.614L135.701 192.674C139.029 202.859 142.287 208.575 149.841 206.815Z" fill="black"/>
<path d="M223.068 5.91649C228.305 11.4193 272.718 65.7833 306.083 132.515C310.234 140.816 311.189 150.238 305.045 156.382C295.706 165.721 233.682 195.054 177.409 207.228C156.743 212.159 146.89 211.429 135.902 196.851L57.0374 77.5171C49.7737 66.1025 52.8868 58.8387 66.3766 53.6502L205.427 2.80335C214.163 0.711608 218.917 0.728053 223.068 5.91649Z" fill="white" stroke="black" stroke-width="3"/>
<g filter="url(#filter0_d_2307_2)">
<path d="M184.5 183.5C217.647 172.352 235.212 165.74 262.5 152.5" stroke="black" stroke-width="7" stroke-linecap="round"/>
</g>
<g filter="url(#filter1_d_2307_2)">
<mask id="path-6-outside-1_2307_2" maskUnits="userSpaceOnUse" x="120.732" y="31.0404" width="104.85" height="128.363" fill="black">
<rect fill="white" x="120.732" y="31.0404" width="104.85" height="128.363"/>
<path d="M194.961 146.512C191.43 148.343 187.868 149.659 184.275 150.46C180.775 151.214 177.339 151.522 173.966 151.384C172.889 151.353 171.808 151.088 170.724 150.589C169.733 150.041 168.9 149.117 168.226 147.816C167.455 146.33 167.245 144.788 167.596 143.191C167.992 141.453 168.98 140.175 170.56 139.356C171.489 138.874 172.422 138.626 173.358 138.613C175.698 138.578 178.081 138.286 180.507 137.735C183.026 137.137 185.494 136.211 187.91 134.959C190.697 133.513 193.081 131.629 195.06 129.306C197.132 126.935 198.257 123.876 198.436 120.128C198.567 116.288 197.115 111.44 194.08 105.586L162.791 45.2343C161.875 43.4688 161.708 41.6689 162.29 39.8347C162.824 37.9075 163.973 36.4863 165.739 35.571C167.504 34.6557 169.328 34.5353 171.211 35.2099C173.138 35.7434 174.559 36.893 175.474 38.6585L206.33 98.1743C209.799 104.865 211.829 110.827 212.421 116.061C213.057 121.155 212.632 125.678 211.145 129.633C209.703 133.446 207.528 136.754 204.619 139.559C201.711 142.364 198.492 144.681 194.961 146.512Z"/>
</mask>
<path d="M194.961 146.512C191.43 148.343 187.868 149.659 184.275 150.46C180.775 151.214 177.339 151.522 173.966 151.384C172.889 151.353 171.808 151.088 170.724 150.589C169.733 150.041 168.9 149.117 168.226 147.816C167.455 146.33 167.245 144.788 167.596 143.191C167.992 141.453 168.98 140.175 170.56 139.356C171.489 138.874 172.422 138.626 173.358 138.613C175.698 138.578 178.081 138.286 180.507 137.735C183.026 137.137 185.494 136.211 187.91 134.959C190.697 133.513 193.081 131.629 195.06 129.306C197.132 126.935 198.257 123.876 198.436 120.128C198.567 116.288 197.115 111.44 194.08 105.586L162.791 45.2343C161.875 43.4688 161.708 41.6689 162.29 39.8347C162.824 37.9075 163.973 36.4863 165.739 35.571C167.504 34.6557 169.328 34.5353 171.211 35.2099C173.138 35.7434 174.559 36.893 175.474 38.6585L206.33 98.1743C209.799 104.865 211.829 110.827 212.421 116.061C213.057 121.155 212.632 125.678 211.145 129.633C209.703 133.446 207.528 136.754 204.619 139.559C201.711 142.364 198.492 144.681 194.961 146.512Z" fill="black"/>
<path d="M184.275 150.46L184.38 150.949L184.384 150.948L184.275 150.46ZM173.966 151.384L173.986 150.884L173.98 150.884L173.966 151.384ZM170.724 150.589L170.483 151.026L170.499 151.035L170.515 151.043L170.724 150.589ZM167.596 143.191L167.109 143.08L167.108 143.084L167.596 143.191ZM173.358 138.613L173.365 139.113L173.358 138.613ZM180.507 137.735L180.618 138.223L180.623 138.222L180.507 137.735ZM195.06 129.306L194.683 128.977L194.679 128.982L195.06 129.306ZM198.436 120.128L198.936 120.152L198.936 120.145L198.436 120.128ZM162.29 39.8347L162.767 39.9859L162.77 39.977L162.772 39.9681L162.29 39.8347ZM171.211 35.2099L171.042 35.6806L171.059 35.6869L171.077 35.6918L171.211 35.2099ZM212.421 116.061L211.924 116.118L211.924 116.123L212.421 116.061ZM211.145 129.633L211.613 129.809L211.613 129.809L211.145 129.633ZM204.619 139.559L204.966 139.919V139.919L204.619 139.559ZM194.961 146.512L194.731 146.068C191.235 147.88 187.713 149.181 184.166 149.972L184.275 150.46L184.384 150.948C188.022 150.137 191.625 148.805 195.191 146.956L194.961 146.512ZM184.275 150.46L184.17 149.972C180.708 150.717 177.314 151.02 173.986 150.884L173.966 151.384L173.946 151.883C177.363 152.023 180.841 151.711 184.38 150.949L184.275 150.46ZM173.966 151.384L173.98 150.884C172.977 150.855 171.963 150.608 170.933 150.134L170.724 150.589L170.515 151.043C171.654 151.567 172.8 151.85 173.952 151.884L173.966 151.384ZM170.724 150.589L170.966 150.151C170.083 149.664 169.312 148.825 168.67 147.586L168.226 147.816L167.782 148.047C168.489 149.41 169.383 150.419 170.483 151.026L170.724 150.589ZM168.226 147.816L168.67 147.586C167.951 146.201 167.759 144.778 168.085 143.299L167.596 143.191L167.108 143.084C166.731 144.798 166.959 146.459 167.782 148.047L168.226 147.816ZM167.596 143.191L168.084 143.302C168.447 141.707 169.341 140.551 170.79 139.8L170.56 139.356L170.33 138.912C168.619 139.799 167.537 141.199 167.109 143.08L167.596 143.191ZM170.56 139.356L170.79 139.8C171.658 139.349 172.515 139.125 173.365 139.113L173.358 138.613L173.35 138.113C172.328 138.128 171.319 138.399 170.33 138.912L170.56 139.356ZM173.358 138.613L173.365 139.113C175.742 139.078 178.16 138.781 180.618 138.223L180.507 137.735L180.397 137.248C178.002 137.791 175.654 138.079 173.35 138.113L173.358 138.613ZM180.507 137.735L180.623 138.222C183.184 137.613 185.69 136.673 188.14 135.403L187.91 134.959L187.68 134.515C185.298 135.749 182.869 136.66 180.392 137.249L180.507 137.735ZM187.91 134.959L188.14 135.403C190.983 133.928 193.418 132.004 195.44 129.631L195.06 129.306L194.679 128.982C192.743 131.254 190.412 133.098 187.68 134.515L187.91 134.959ZM195.06 129.306L195.436 129.635C197.596 127.164 198.752 123.99 198.936 120.152L198.436 120.128L197.937 120.105C197.762 123.762 196.667 126.707 194.683 128.977L195.06 129.306ZM198.436 120.128L198.936 120.145C199.071 116.178 197.574 111.239 194.524 105.356L194.08 105.586L193.636 105.817C196.656 111.642 198.063 116.398 197.937 120.111L198.436 120.128ZM194.08 105.586L194.524 105.356L163.235 45.0042L162.791 45.2343L162.347 45.4645L193.636 105.817L194.08 105.586ZM162.791 45.2343L163.235 45.0042C162.378 43.352 162.227 41.689 162.767 39.9859L162.29 39.8347L161.814 39.6836C161.19 41.6489 161.373 43.5856 162.347 45.4645L162.791 45.2343ZM162.29 39.8347L162.772 39.9681C163.269 38.1741 164.328 36.8658 165.969 36.0149L165.739 35.571L165.509 35.1271C163.619 36.1068 162.379 37.641 161.808 39.7013L162.29 39.8347ZM165.739 35.571L165.969 36.0149C167.61 35.1639 169.29 35.0526 171.042 35.6806L171.211 35.2099L171.379 34.7392C169.367 34.018 167.398 34.1474 165.509 35.1271L165.739 35.571ZM171.211 35.2099L171.077 35.6918C172.871 36.1885 174.18 37.2473 175.03 38.8886L175.474 38.6585L175.918 38.4283C174.938 36.5386 173.404 35.2984 171.344 34.728L171.211 35.2099ZM175.474 38.6585L175.03 38.8886L205.886 98.4044L206.33 98.1743L206.774 97.9442L175.918 38.4283L175.474 38.6585ZM206.33 98.1743L205.886 98.4044C209.338 105.062 211.341 110.964 211.924 116.118L212.421 116.061L212.917 116.005C212.317 110.69 210.26 104.667 206.774 97.9442L206.33 98.1743ZM212.421 116.061L211.924 116.123C212.553 121.153 212.13 125.593 210.677 129.457L211.145 129.633L211.613 129.809C213.134 125.764 213.561 121.156 212.917 115.999L212.421 116.061ZM211.145 129.633L210.677 129.456C209.261 133.2 207.127 136.446 204.272 139.199L204.619 139.559L204.966 139.919C207.928 137.062 210.144 133.691 211.613 129.809L211.145 129.633ZM204.619 139.559L204.272 139.199C201.398 141.971 198.218 144.26 194.731 146.068L194.961 146.512L195.191 146.956C198.765 145.103 202.024 142.756 204.966 139.919L204.619 139.559Z" fill="black" mask="url(#path-6-outside-1_2307_2)"/>
</g>
<defs>
<filter id="filter0_d_2307_2" x="178.499" y="146.499" width="93.0018" height="46.0017" filterUnits="userSpaceOnUse" color-interpolation-filters="sRGB">
<feFlood flood-opacity="0" result="BackgroundImageFix"/>
<feColorMatrix in="SourceAlpha" type="matrix" values="0 0 0 0 0 0 0 0 0 0 0 0 0 0 0 0 0 0 127 0" result="hardAlpha"/>
<feOffset dx="1.5" dy="1.5"/>
<feGaussianBlur stdDeviation="2"/>
<feComposite in2="hardAlpha" operator="out"/>
<feColorMatrix type="matrix" values="0 0 0 0 0 0 0 0 0 0 0 0 0 0 0 0 0 0 1 0"/>
<feBlend mode="normal" in2="BackgroundImageFix" result="effect1_dropShadow_2307_2"/>
<feBlend mode="normal" in="SourceGraphic" in2="effect1_dropShadow_2307_2" result="shape"/>
</filter>
<filter id="filter1_d_2307_2" x="158.951" y="31.7806" width="59.7556" height="125.635" filterUnits="userSpaceOnUse" color-interpolation-filters="sRGB">
<feFlood flood-opacity="0" result="BackgroundImageFix"/>
<feColorMatrix in="SourceAlpha" type="matrix" values="0 0 0 0 0 0 0 0 0 0 0 0 0 0 0 0 0 0 127 0" result="hardAlpha"/>
<feOffset dx="1.5" dy="1.5"/>
<feGaussianBlur stdDeviation="2"/>
<feComposite in2="hardAlpha" operator="out"/>
<feColorMatrix type="matrix" values="0 0 0 0 0 0 0 0 0 0 0 0 0 0 0 0 0 0 0.12 0"/>
<feBlend mode="normal" in2="BackgroundImageFix" result="effect1_dropShadow_2307_2"/>
<feBlend mode="normal" in="SourceGraphic" in2="effect1_dropShadow_2307_2" result="shape"/>
</filter>
</defs>
</svg>
