<svg width="128" height="128" viewBox="0 0 128 128" fill="none" xmlns="http://www.w3.org/2000/svg">
<rect width="128" height="128" fill="#E5E5E5"/>
<rect width="128" height="128" rx="9" fill="#892AE2"/>
<path d="M32.0956 105.392C34.2169 98.8455 33.6735 95.7479 30.1177 90.889C29.8774 91.0371 29.6366 91.1915 29.3948 91.3527C26.6493 93.1833 23.7741 95.8882 19.9816 100.087C18.7455 98.2423 17.7566 92.2457 19.2399 86.9409C19.8516 83.6304 19.8366 81.2193 19.2399 76.0446C13.801 58.1109 16.2733 51.4224 22.7011 42.4274C79.0677 4.14125 135.108 53.8412 108.24 101.702C110.635 107.291 112.681 112.725 114.389 118H17.2541C21.9359 111.723 26.928 107.269 32.0956 105.392Z" fill="#F3F0F0"/>
<path d="M38.0288 87.8635C34.7558 88.5658 32.1402 89.5221 29.3948 91.3527M29.3948 91.3527C29.6366 91.1915 29.8774 91.0371 30.1177 90.889C33.6735 95.7479 34.2169 98.8455 32.0956 105.392C26.928 107.269 21.9359 111.723 17.2541 118H114.389C112.681 112.725 110.635 107.291 108.24 101.702C135.108 53.8412 79.0677 4.14125 22.7011 42.4274C16.2733 51.4224 13.801 58.1109 19.2399 76.0446C19.8366 81.2193 19.8516 83.6304 19.2399 86.9409C17.7566 92.2457 18.7455 98.2423 19.9816 100.087C23.7741 95.8882 26.6493 93.1833 29.3948 91.3527Z" stroke="#333333" stroke-width="2"/>
<g filter="url(#filter0_d)">
<path d="M66.3225 28.8931C66.2243 28.8839 66.1476 28.8058 66.1415 28.7073C65.7323 22.1518 65.1526 13.8792 68.0498 9.84824C68.1801 9.66695 67.9527 9.36711 67.749 9.45855C48.5581 18.0748 38.515 26.136 21.834 43.2664C21.8267 43.2739 21.8197 43.2824 21.8136 43.291C14.6899 53.3892 14.3485 60.8228 18.9827 76.6022C18.9858 76.6126 18.9881 76.6237 18.9895 76.6345C19.5324 81.0318 19.3954 83.3262 18.9874 87.3495L27.7138 87.9673C27.7785 87.9719 27.8423 87.9437 27.8834 87.8935C37.6248 76.0138 43.144 69.9453 50.0468 67.8663C54.2077 66.4045 73.7265 59.5312 79.5354 53.6967C90.7335 42.4491 102.359 30.3466 109.956 27.0088C110.174 26.9129 110.079 26.4806 109.841 26.4941C94.2041 27.3841 88.6277 29.429 83.0513 32.4423C78.4157 30.739 72.1297 29.4379 66.3225 28.8931Z" fill="#333333"/>
<path d="M18.9874 87.3495C19.3954 83.3262 19.5324 81.0318 18.9895 76.6345C18.9881 76.6237 18.9858 76.6126 18.9827 76.6022C14.3485 60.8228 14.6899 53.3892 21.8136 43.291C21.8197 43.2824 21.8267 43.2739 21.834 43.2664C38.515 26.136 48.5581 18.0748 67.749 9.45855C67.9527 9.36711 68.1801 9.66695 68.0498 9.84824C65.1526 13.8792 65.7323 22.1518 66.1415 28.7073C66.1476 28.8058 66.2243 28.8839 66.3225 28.8931C72.1297 29.4379 78.4157 30.739 83.0513 32.4423M18.9874 87.3495C17.7635 91.2502 17.5597 93.8758 18.9067 99.8127C18.9413 99.9654 19.1314 100.022 19.242 99.911C22.5219 96.6242 24.2 94.257 29.7621 90.996C33.4294 89.2854 34.8076 88.6973 37.6843 87.9746M18.9874 87.3495L27.7138 87.9673C27.7785 87.9719 27.8423 87.9437 27.8834 87.8935C37.6248 76.0138 43.144 69.9453 50.0468 67.8663C54.2077 66.4045 73.7265 59.5312 79.5354 53.6967C90.7335 42.4491 102.359 30.3466 109.956 27.0088C110.174 26.9129 110.079 26.4806 109.841 26.4941C94.2041 27.3841 88.6277 29.429 83.0513 32.4423M54.0164 29.3167C60.4812 27.5455 74.545 29.3167 83.0513 32.4423" stroke="#333333" stroke-width="2"/>
</g>
<ellipse cx="60.5" cy="72.3721" rx="2.5" ry="2.53488" fill="#333333"/>
<path d="M79.3238 72.6473C87.4274 78.0855 83.9862 98.2991 73.7734 106.405M70.6651 65.9779C58.3086 69.586 55.3437 73.1172 52.7927 79.6246C62.6726 78.905 66.3333 77.1463 68.556 70.903C69.4432 67.9668 69.9111 66.7908 70.6651 65.9779Z" stroke="#333333" stroke-width="2"/>
<path d="M18 116C19.6722 113.978 21.3888 112.143 23.1452 110.514C33.1287 102.955 58.1406 98.8951 65 116H18Z" fill="#333333" stroke="#333333" stroke-width="6"/>
<defs>
<filter id="filter0_d" x="10.9082" y="8.4371" width="104.167" height="100.534" filterUnits="userSpaceOnUse" color-interpolation-filters="sRGB">
<feFlood flood-opacity="0" result="BackgroundImageFix"/>
<feColorMatrix in="SourceAlpha" type="matrix" values="0 0 0 0 0 0 0 0 0 0 0 0 0 0 0 0 0 0 127 0"/>
<feOffset dy="4"/>
<feGaussianBlur stdDeviation="2"/>
<feColorMatrix type="matrix" values="0 0 0 0 0 0 0 0 0 0 0 0 0 0 0 0 0 0 0.25 0"/>
<feBlend mode="normal" in2="BackgroundImageFix" result="effect1_dropShadow"/>
<feBlend mode="normal" in="SourceGraphic" in2="effect1_dropShadow" result="shape"/>
</filter>
</defs>
</svg>
