<?xml version="1.0" standalone="no"?><svg xmlns="http://www.w3.org/2000/svg" viewBox="0 0 1440 320"><path fill="#5000ca" fill-opacity="1" d="M0,160L26.7,154.7C53.3,149,107,139,160,149.3C213.3,160,267,192,320,224C373.3,256,427,288,480,256C533.3,224,587,128,640,117.3C693.3,107,747,181,800,176C853.3,171,907,85,960,80C1013.3,75,1067,149,1120,170.7C1173.3,192,1227,160,1280,149.3C1333.3,139,1387,149,1413,154.7L1440,160L1440,320L1413.3,320C1386.7,320,1333,320,1280,320C1226.7,320,1173,320,1120,320C1066.7,320,1013,320,960,320C906.7,320,853,320,800,320C746.7,320,693,320,640,320C586.7,320,533,320,480,320C426.7,320,373,320,320,320C266.7,320,213,320,160,320C106.7,320,53,320,27,320L0,320Z"></path></svg>