<svg width="320" height="369" viewBox="0 0 320 369" fill="none" xmlns="http://www.w3.org/2000/svg">
<g clip-path="url(#clip0_5_874)">
<path d="M319.227 146.356C279.255 157.468 224.439 168.242 158.943 168.168C94.076 168.096 39.744 157.405 0 146.356V66.1409C39.4 77.0969 92.7467 87.5956 156.26 87.9543C222.916 88.3303 278.684 77.4143 319.227 66.1409V146.356Z" fill="#8D2CE2"/>
<path d="M319.227 36.5893C319.227 56.796 247.764 73.1773 159.613 73.1773C71.4613 73.1773 0 56.796 0 36.5893C0 16.3813 71.4613 -2.28882e-05 159.613 -2.28882e-05C247.764 -2.28882e-05 319.227 16.3813 319.227 36.5893Z" fill="#8D2CE2"/>
<path d="M311.333 112.667C311.333 120.767 304.767 127.333 296.667 127.333C288.567 127.333 282 120.767 282 112.667C282 104.567 288.567 98.0002 296.667 98.0002C304.767 98.0002 311.333 104.567 311.333 112.667Z" fill="white"/>
<path d="M311.333 112.667C311.333 120.767 304.767 127.333 296.667 127.333C288.567 127.333 282 120.767 282 112.667C282 104.567 288.567 98.0002 296.667 98.0002C304.767 98.0002 311.333 104.567 311.333 112.667Z" stroke="#8D2CE2" stroke-width="1.33333" stroke-miterlimit="10"/>
<path d="M267.333 123.333C267.333 131.433 260.767 138 252.667 138C244.567 138 238 131.433 238 123.333C238 115.233 244.567 108.667 252.667 108.667C260.767 108.667 267.333 115.233 267.333 123.333Z" fill="white"/>
<path d="M267.333 123.333C267.333 131.433 260.767 138 252.667 138C244.567 138 238 131.433 238 123.333C238 115.233 244.567 108.667 252.667 108.667C260.767 108.667 267.333 115.233 267.333 123.333Z" stroke="#8D2CE2" stroke-width="1.33333" stroke-miterlimit="10"/>
<path d="M222 131.333C222 139.433 215.433 146 207.333 146C199.233 146 192.667 139.433 192.667 131.333C192.667 123.233 199.233 116.667 207.333 116.667C215.433 116.667 222 123.233 222 131.333Z" fill="white"/>
<path d="M222 131.333C222 139.433 215.433 146 207.333 146C199.233 146 192.667 139.433 192.667 131.333C192.667 123.233 199.233 116.667 207.333 116.667C215.433 116.667 222 123.233 222 131.333Z" stroke="#8D2CE2" stroke-width="1.33333" stroke-miterlimit="10"/>
<path d="M319.227 243.689C279.255 254.801 224.439 265.576 158.943 265.501C94.076 265.429 39.744 254.738 0 243.689V163.474C39.4 174.43 92.7467 184.929 156.26 185.288C222.916 185.664 278.684 174.748 319.227 163.474V243.689Z" fill="#8D2CE2"/>
<path d="M311.333 210C311.333 218.1 304.767 224.667 296.667 224.667C288.567 224.667 282 218.1 282 210C282 201.9 288.567 195.333 296.667 195.333C304.767 195.333 311.333 201.9 311.333 210Z" fill="white"/>
<path d="M311.333 210C311.333 218.1 304.767 224.667 296.667 224.667C288.567 224.667 282 218.1 282 210C282 201.9 288.567 195.333 296.667 195.333C304.767 195.333 311.333 201.9 311.333 210Z" stroke="#8D2CE2" stroke-width="1.33333" stroke-miterlimit="10"/>
<path d="M267.333 220.667C267.333 228.767 260.767 235.333 252.667 235.333C244.567 235.333 238 228.767 238 220.667C238 212.567 244.567 206 252.667 206C260.767 206 267.333 212.567 267.333 220.667Z" fill="white"/>
<path d="M267.333 220.667C267.333 228.767 260.767 235.333 252.667 235.333C244.567 235.333 238 228.767 238 220.667C238 212.567 244.567 206 252.667 206C260.767 206 267.333 212.567 267.333 220.667Z" stroke="#8D2CE2" stroke-width="1.33333" stroke-miterlimit="10"/>
<path d="M222 228.667C222 236.767 215.433 243.333 207.333 243.333C199.233 243.333 192.667 236.767 192.667 228.667C192.667 220.567 199.233 214 207.333 214C215.433 214 222 220.567 222 228.667Z" fill="white"/>
<path d="M222 228.667C222 236.767 215.433 243.333 207.333 243.333C199.233 243.333 192.667 236.767 192.667 228.667C192.667 220.567 199.233 214 207.333 214C215.433 214 222 220.567 222 228.667Z" stroke="#8D2CE2" stroke-width="1.33333" stroke-miterlimit="10"/>
<path d="M319.227 346.356C279.255 357.468 224.439 368.242 158.943 368.168C94.076 368.096 39.744 357.405 0 346.356V266.142C39.4 277.098 92.7467 287.596 156.26 287.954C222.916 288.33 278.684 277.414 319.227 266.142V346.356Z" fill="#8D2CE2"/>
<path d="M311.333 312.667C311.333 320.767 304.767 327.333 296.667 327.333C288.567 327.333 282 320.767 282 312.667C282 304.567 288.567 298 296.667 298C304.767 298 311.333 304.567 311.333 312.667Z" fill="white"/>
<path d="M311.333 312.667C311.333 320.767 304.767 327.333 296.667 327.333C288.567 327.333 282 320.767 282 312.667C282 304.567 288.567 298 296.667 298C304.767 298 311.333 304.567 311.333 312.667Z" stroke="#8D2CE2" stroke-width="1.33333" stroke-miterlimit="10"/>
<path d="M267.333 323.333C267.333 331.433 260.767 338 252.667 338C244.567 338 238 331.433 238 323.333C238 315.233 244.567 308.667 252.667 308.667C260.767 308.667 267.333 315.233 267.333 323.333Z" fill="white"/>
<path d="M267.333 323.333C267.333 331.433 260.767 338 252.667 338C244.567 338 238 331.433 238 323.333C238 315.233 244.567 308.667 252.667 308.667C260.767 308.667 267.333 315.233 267.333 323.333Z" stroke="#8D2CE2" stroke-width="1.33333" stroke-miterlimit="10"/>
<path d="M222 331.333C222 339.433 215.433 346 207.333 346C199.233 346 192.667 339.433 192.667 331.333C192.667 323.233 199.233 316.667 207.333 316.667C215.433 316.667 222 323.233 222 331.333Z" fill="white"/>
<path d="M222 331.333C222 339.433 215.433 346 207.333 346C199.233 346 192.667 339.433 192.667 331.333C192.667 323.233 199.233 316.667 207.333 316.667C215.433 316.667 222 323.233 222 331.333Z" stroke="#8D2CE2" stroke-width="1.33333" stroke-miterlimit="10"/>
</g>
<defs>
<clipPath id="clip0_5_874">
<rect width="319.227" height="368.168" fill="white"/>
</clipPath>
</defs>
</svg>
