<svg width="34" height="34" viewBox="0 0 34 34" fill="none" xmlns="http://www.w3.org/2000/svg">
<g id="Subtract">
<path fill-rule="evenodd" clip-rule="evenodd" d="M17 33C25.8366 33 33 25.8366 33 17C33 8.16344 25.8366 1 17 1C8.16344 1 1 8.16344 1 17C1 25.8366 8.16344 33 17 33ZM26.1601 18.5525L17.8314 26.8813C17.1738 27.5388 16.7355 27.5388 16.0779 26.8813L8.18751 18.9909C5.55746 16.3607 8.40676 13.5114 10.8177 15.9224L14.7629 19.8676V9.56619C14.7593 5.74461 19.1422 5.74095 19.1464 9.56619V19.8676L23.0917 15.9224C25.5027 13.5114 28.352 16.3607 26.1601 18.5525Z" fill="#707070"/>
<path d="M17.8314 26.8813L17.9021 26.952L17.9021 26.952L17.8314 26.8813ZM26.1601 18.5525L26.0894 18.4818L26.0894 18.4818L26.1601 18.5525ZM16.0779 26.8813L16.0072 26.952L16.0072 26.952L16.0779 26.8813ZM8.18751 18.9909L8.1168 19.0616L8.1168 19.0616L8.18751 18.9909ZM10.8177 15.9224L10.7469 15.9931L10.7469 15.9931L10.8177 15.9224ZM14.7629 19.8676L14.6921 19.9383L14.8629 20.109V19.8676H14.7629ZM14.7629 9.56619L14.8629 9.56619L14.8629 9.5661L14.7629 9.56619ZM19.1464 9.56619L19.2464 9.56619L19.2464 9.56608L19.1464 9.56619ZM19.1464 19.8676H19.0464V20.109L19.2171 19.9383L19.1464 19.8676ZM23.0917 15.9224L23.1624 15.9931L23.1624 15.9931L23.0917 15.9224ZM32.9 17C32.9 25.7813 25.7813 32.9 17 32.9V33.1C25.8918 33.1 33.1 25.8918 33.1 17H32.9ZM17 1.1C25.7813 1.1 32.9 8.21867 32.9 17H33.1C33.1 8.10822 25.8918 0.9 17 0.9V1.1ZM1.1 17C1.1 8.21867 8.21867 1.1 17 1.1V0.9C8.10822 0.9 0.9 8.10822 0.9 17H1.1ZM17 32.9C8.21867 32.9 1.1 25.7813 1.1 17H0.9C0.9 25.8918 8.10822 33.1 17 33.1V32.9ZM17.9021 26.952L26.2308 18.6232L26.0894 18.4818L17.7606 26.8105L17.9021 26.952ZM16.0072 26.952C16.3399 27.2847 16.6387 27.4744 16.9546 27.4744C17.2705 27.4744 17.5694 27.2847 17.9021 26.952L17.7606 26.8105C17.4358 27.1354 17.1867 27.2744 16.9546 27.2744C16.7226 27.2744 16.4735 27.1354 16.1486 26.8105L16.0072 26.952ZM8.1168 19.0616L16.0072 26.952L16.1486 26.8105L8.25822 18.9201L8.1168 19.0616ZM10.8884 15.8516C9.65317 14.6164 8.27161 14.7069 7.53885 15.4983C6.80677 16.2889 6.77594 17.7207 8.1168 19.0616L8.25823 18.9201C6.96904 17.6309 7.04783 16.3229 7.68561 15.6341C8.32271 14.9461 9.57124 14.8173 10.7469 15.9931L10.8884 15.8516ZM14.8336 19.7969L10.8884 15.8516L10.7469 15.9931L14.6921 19.9383L14.8336 19.7969ZM14.6629 9.56619V19.8676H14.8629V9.56619H14.6629ZM19.2464 9.56608C19.2443 7.61298 18.1164 6.59815 16.9517 6.59863C15.787 6.59912 14.661 7.61495 14.6629 9.56629L14.8629 9.5661C14.8611 7.69586 15.9248 6.79906 16.9518 6.79863C17.9787 6.7982 19.0444 7.69416 19.0464 9.5663L19.2464 9.56608ZM19.2464 19.8676V9.56619H19.0464V19.8676H19.2464ZM23.021 15.8516L19.0757 19.7969L19.2171 19.9383L23.1624 15.9931L23.021 15.8516ZM26.2308 18.6232C26.7946 18.0594 27.0408 17.4461 27.0444 16.8785C27.048 16.3117 26.8096 15.7988 26.4199 15.438C25.6346 14.7109 24.2582 14.6144 23.021 15.8516L23.1624 15.9931C24.3361 14.8193 25.5899 14.9421 26.284 15.5848C26.6341 15.9089 26.8477 16.3687 26.8444 16.8772C26.8412 17.3849 26.6216 17.9497 26.0894 18.4818L26.2308 18.6232Z" fill="#707070"/>
</g>
</svg>
