<svg width="502" height="344" viewBox="0 0 502 344" fill="none" xmlns="http://www.w3.org/2000/svg">
<path d="M494.122 0H7.12181C5.26593 0.00205925 3.48664 0.740212 2.17433 2.05252C0.862023 3.36483 0.12387 5.14412 0.121811 7V337C0.12387 338.856 0.862023 340.635 2.17433 341.947C3.48664 343.26 5.26593 343.998 7.12181 344H494.122C495.978 343.998 497.757 343.26 499.069 341.947C500.382 340.635 501.12 338.856 501.122 337V7C501.12 5.14412 500.382 3.36483 499.069 2.05252C497.757 0.740212 495.978 0.00205925 494.122 0ZM499.122 337C499.121 338.326 498.594 339.597 497.657 340.535C496.719 341.473 495.448 342 494.122 342H7.12181C5.79589 342 4.5244 341.473 3.58684 340.535C2.64927 339.597 2.12234 338.326 2.12181 337V7C2.12234 5.67408 2.64927 4.40262 3.58684 3.46506C4.5244 2.52749 5.79589 2.00053 7.12181 2H494.122C495.448 2.00053 496.719 2.52749 497.657 3.46506C498.594 4.40262 499.121 5.67408 499.122 7V337Z" fill="#3F3D56"/>
<path d="M500.122 28.04H1.1218V30.04H500.122V28.04Z" fill="#3F3D56"/>
<path d="M18.1218 21C21.4355 21 24.1218 18.3137 24.1218 15C24.1218 11.6863 21.4355 9 18.1218 9C14.8081 9 12.1218 11.6863 12.1218 15C12.1218 18.3137 14.8081 21 18.1218 21Z" fill="#3F3D56"/>
<path d="M35.3718 21C38.6855 21 41.3718 18.3137 41.3718 15C41.3718 11.6863 38.6855 9 35.3718 9C32.0581 9 29.3718 11.6863 29.3718 15C29.3718 18.3137 32.0581 21 35.3718 21Z" fill="#3F3D56"/>
<path d="M52.6218 21C55.9355 21 58.6218 18.3137 58.6218 15C58.6218 11.6863 55.9355 9 52.6218 9C49.3081 9 46.6218 11.6863 46.6218 15C46.6218 18.3137 49.3081 21 52.6218 21Z" fill="#3F3D56"/>
<path d="M137.122 69H49.1218C47.2659 69.0021 45.4867 69.7402 44.1743 71.0525C42.862 72.3648 42.1239 74.1441 42.1218 76V164C42.1239 165.856 42.862 167.635 44.1743 168.947C45.4867 170.26 47.2659 170.998 49.1218 171H137.122C138.978 170.998 140.757 170.26 142.069 168.947C143.382 167.635 144.12 165.856 144.122 164V76C144.12 74.1441 143.382 72.3648 142.069 71.0525C140.757 69.7402 138.978 69.0021 137.122 69ZM142.122 164C142.121 165.326 141.594 166.597 140.657 167.535C139.719 168.473 138.448 168.999 137.122 169H49.1218C47.7959 168.999 46.5244 168.473 45.5869 167.535C44.6493 166.597 44.1224 165.326 44.1218 164V76C44.1224 74.6741 44.6493 73.4026 45.5869 72.4651C46.5244 71.5275 47.7959 71.0005 49.1218 71H137.122C138.448 71.0005 139.719 71.5275 140.657 72.4651C141.594 73.4026 142.121 74.6741 142.122 76V164Z" fill="#3F3D56"/>
<path d="M295.122 69.5H207.122C205.399 69.5033 203.748 70.1892 202.529 71.4075C201.311 72.6258 200.625 74.2771 200.622 76V164C200.625 165.723 201.311 167.374 202.529 168.593C203.748 169.811 205.399 170.497 207.122 170.5H295.122C296.845 170.497 298.496 169.811 299.714 168.593C300.933 167.374 301.618 165.723 301.622 164V76C301.618 74.2771 300.933 72.6258 299.714 71.4075C298.496 70.1892 296.845 69.5033 295.122 69.5Z" fill="#8D2CE2"/>
<path d="M453.122 69.5H365.122C363.399 69.5033 361.748 70.1892 360.529 71.4075C359.311 72.6258 358.625 74.2771 358.622 76V164C358.625 165.723 359.311 167.374 360.529 168.593C361.748 169.811 363.399 170.497 365.122 170.5H453.122C454.845 170.497 456.496 169.811 457.714 168.593C458.933 167.374 459.618 165.723 459.622 164V76C459.618 74.2771 458.933 72.6258 457.714 71.4075C456.496 70.1892 454.845 69.5033 453.122 69.5Z" fill="#E6E6E6"/>
<path d="M137.122 201.5H49.1218C47.3989 201.503 45.7476 202.189 44.5293 203.408C43.311 204.626 42.6252 206.277 42.6218 208V296C42.6252 297.723 43.311 299.374 44.5293 300.592C45.7476 301.811 47.3989 302.497 49.1218 302.5H137.122C138.845 302.497 140.496 301.811 141.714 300.592C142.933 299.374 143.618 297.723 143.622 296V208C143.618 206.277 142.933 204.626 141.714 203.408C140.496 202.189 138.845 201.503 137.122 201.5Z" fill="#E6E6E6"/>
<path d="M295.122 201.5H207.122C205.399 201.503 203.748 202.189 202.529 203.408C201.311 204.626 200.625 206.277 200.622 208V296C200.625 297.723 201.311 299.374 202.529 300.592C203.748 301.811 205.399 302.497 207.122 302.5H295.122C296.845 302.497 298.496 301.811 299.714 300.592C300.933 299.374 301.618 297.723 301.622 296V208C301.618 206.277 300.933 204.626 299.714 203.408C298.496 202.189 296.845 201.503 295.122 201.5Z" fill="#8D2CE2"/>
<path d="M453.122 201.5H365.122C363.399 201.503 361.748 202.189 360.529 203.408C359.311 204.626 358.625 206.277 358.622 208V296C358.625 297.723 359.311 299.374 360.529 300.592C361.748 301.811 363.399 302.497 365.122 302.5H453.122C454.845 302.497 456.496 301.811 457.714 300.592C458.933 299.374 459.618 297.723 459.622 296V208C459.618 206.277 458.933 204.626 457.714 203.408C456.496 202.189 454.845 201.503 453.122 201.5Z" fill="#E6E6E6"/>
<path d="M115.622 216H27.6218C25.8985 215.998 24.2463 215.313 23.0278 214.094C21.8092 212.875 21.1238 211.223 21.1218 209.5V121.5C21.1238 119.777 21.8092 118.125 23.0278 116.906C24.2463 115.687 25.8985 115.002 27.6218 115H115.622C117.345 115.002 118.997 115.687 120.216 116.906C121.434 118.125 122.12 119.777 122.122 121.5V209.5C122.12 211.223 121.434 212.875 120.216 214.094C118.997 215.313 117.345 215.998 115.622 216Z" fill="#8D2CE2"/>
</svg>
